<svg width="180" height="180" viewBox="0 0 180 180" fill="none" xmlns="http://www.w3.org/2000/svg">
<rect width="180" height="180" fill="#F3F7F3"/>
<path d="M33.8 108C31.0667 108 28.45 107.617 25.95 106.85C23.45 106.05 21.4667 105.033 20 103.8L22.25 98.75C23.65 99.85 25.3833 100.767 27.45 101.5C29.5167 102.233 31.6333 102.6 33.8 102.6C35.6333 102.6 37.1167 102.4 38.25 102C39.3833 101.6 40.2167 101.067 40.75 100.4C41.2833 99.7 41.55 98.9167 41.55 98.05C41.55 96.9833 41.1667 96.1333 40.4 95.5C39.6333 94.8333 38.6333 94.3167 37.4 93.95C36.2 93.55 34.85 93.1833 33.35 92.85C31.8833 92.5167 30.4 92.1333 28.9 91.7C27.4333 91.2333 26.0833 90.65 24.85 89.95C23.65 89.2167 22.6667 88.25 21.9 87.05C21.1333 85.85 20.75 84.3167 20.75 82.45C20.75 80.55 21.25 78.8167 22.25 77.25C23.2833 75.65 24.8333 74.3833 26.9 73.45C29 72.4833 31.65 72 34.85 72C36.95 72 39.0333 72.2667 41.1 72.8C43.1667 73.3333 44.9667 74.1 46.5 75.1L44.45 80.15C42.8833 79.2167 41.2667 78.5333 39.6 78.1C37.9333 77.6333 36.3333 77.4 34.8 77.4C33 77.4 31.5333 77.6167 30.4 78.05C29.3 78.4833 28.4833 79.05 27.95 79.75C27.45 80.45 27.2 81.25 27.2 82.15C27.2 83.2167 27.5667 84.0833 28.3 84.75C29.0667 85.3833 30.05 85.8833 31.25 86.25C32.4833 86.6167 33.85 86.9833 35.35 87.35C36.85 87.6833 38.3333 88.0667 39.8 88.5C41.3 88.9333 42.65 89.5 43.85 90.2C45.0833 90.9 46.0667 91.85 46.8 93.05C47.5667 94.25 47.95 95.7667 47.95 97.6C47.95 99.4667 47.4333 101.2 46.4 102.8C45.4 104.367 43.85 105.633 41.75 106.6C39.65 107.533 37 108 33.8 108Z" fill="#1A5319"/>
<path d="M53.3953 107.5V72.5H59.8953V107.5H53.3953Z" fill="#1A5319"/>
<path d="M84.7121 108C81.9788 108 79.4621 107.567 77.1621 106.7C74.8954 105.8 72.9121 104.55 71.2121 102.95C69.5121 101.317 68.1954 99.4 67.2621 97.2C66.3288 95 65.8621 92.6 65.8621 90C65.8621 87.4 66.3288 85 67.2621 82.8C68.1954 80.6 69.5121 78.7 71.2121 77.1C72.9454 75.4667 74.9621 74.2167 77.2621 73.35C79.5621 72.45 82.0788 72 84.8121 72C87.7788 72 90.4454 72.4833 92.8121 73.45C95.2121 74.4167 97.2288 75.8333 98.8621 77.7L94.7621 81.7C93.3954 80.3333 91.9121 79.3333 90.3121 78.7C88.7454 78.0333 87.0121 77.7 85.1121 77.7C83.2788 77.7 81.5788 78 80.0121 78.6C78.4454 79.2 77.0954 80.05 75.9621 81.15C74.8288 82.25 73.9454 83.55 73.3121 85.05C72.7121 86.55 72.4121 88.2 72.4121 90C72.4121 91.7667 72.7121 93.4 73.3121 94.9C73.9454 96.4 74.8288 97.7167 75.9621 98.85C77.0954 99.95 78.4288 100.8 79.9621 101.4C81.4954 102 83.1954 102.3 85.0621 102.3C86.7954 102.3 88.4621 102.033 90.0621 101.5C91.6954 100.933 93.2454 100 94.7121 98.7L98.4121 103.55C96.5788 105.017 94.4454 106.133 92.0121 106.9C89.6121 107.633 87.1788 108 84.7121 108ZM92.2621 102.7V89.6H98.4121V103.55L92.2621 102.7Z" fill="#1A5319"/>
<path d="M113.03 107.5L128.78 72.5H135.18L150.98 107.5H144.18L130.63 75.95H133.23L119.73 107.5H113.03ZM120.28 99.4L122.03 94.3H140.93L142.68 99.4H120.28Z" fill="#1A5319"/>
<path d="M154.431 107.5V72.5H160.931V107.5H154.431Z" fill="#1A5319"/>
<path d="M103.667 100H109V105.333H103.667V100Z" fill="#1A5319"/>
<path d="M103.667 84.6667H109V90H103.667V84.6667Z" fill="#1A5319"/>
</svg>
