<svg width="85" height="24" viewBox="0 0 85 24" fill="none" xmlns="http://www.w3.org/2000/svg">
<path d="M8.31915 22.7992C6.6714 22.7992 5.09397 22.5692 3.58688 22.1092C2.07979 21.6292 0.884161 21.0192 0 20.2792L1.35638 17.2492C2.20035 17.9092 3.24527 18.4592 4.49114 18.8992C5.737 19.3392 7.013 19.5592 8.31915 19.5592C9.42435 19.5592 10.3186 19.4392 11.0018 19.1992C11.685 18.9592 12.1874 18.6392 12.5089 18.2392C12.8304 17.8192 12.9911 17.3492 12.9911 16.8292C12.9911 16.1892 12.76 15.6792 12.2979 15.2992C11.8357 14.8992 11.2329 14.5892 10.4894 14.3692C9.76596 14.1292 8.95213 13.9092 8.04787 13.7092C7.16371 13.5092 6.2695 13.2792 5.36525 13.0192C4.48109 12.7392 3.66726 12.3892 2.92376 11.9692C2.20035 11.5292 1.60757 10.9492 1.14539 10.2292C0.683215 9.50922 0.452128 8.58922 0.452128 7.46922C0.452128 6.32922 0.753546 5.28922 1.35638 4.34922C1.97931 3.38922 2.91371 2.62922 4.15957 2.06922C5.42553 1.48922 7.02305 1.19922 8.95213 1.19922C10.2181 1.19922 11.474 1.35922 12.7199 1.67922C13.9657 1.99922 15.0508 2.45922 15.9752 3.05922L14.7394 6.08922C13.7949 5.52922 12.8203 5.11922 11.8156 4.85922C10.8109 4.57922 9.84634 4.43922 8.92199 4.43922C7.83688 4.43922 6.95272 4.56922 6.2695 4.82922C5.60638 5.08922 5.11407 5.42922 4.79255 5.84922C4.49114 6.26922 4.34043 6.74922 4.34043 7.28922C4.34043 7.92922 4.56147 8.44922 5.00355 8.84922C5.46572 9.22922 6.05851 9.52922 6.78192 9.74922C7.52541 9.96922 8.34929 10.1892 9.25355 10.4092C10.1578 10.6092 11.052 10.8392 11.9362 11.0992C12.8404 11.3592 13.6543 11.6992 14.3777 12.1192C15.1212 12.5392 15.714 13.1092 16.156 13.8292C16.6182 14.5492 16.8493 15.4592 16.8493 16.5592C16.8493 17.6792 16.5378 18.7192 15.9149 19.6792C15.3121 20.6192 14.3777 21.3792 13.1117 21.9592C11.8457 22.5192 10.2482 22.7992 8.31915 22.7992Z" fill="#1A5319"/>
<path d="M20.1319 22.4992V1.49922H24.0504V22.4992H20.1319Z" fill="#1A5319"/>
<path d="M39.0108 22.7992C37.3631 22.7992 35.846 22.5392 34.4594 22.0192C33.093 21.4792 31.8974 20.7292 30.8725 19.7692C29.8477 18.7892 29.054 17.6392 28.4913 16.3192C27.9287 14.9992 27.6474 13.5592 27.6474 11.9992C27.6474 10.4392 27.9287 8.99922 28.4913 7.67922C29.054 6.35922 29.8477 5.21922 30.8725 4.25922C31.9175 3.27922 33.1332 2.52922 34.5197 2.00922C35.9062 1.46922 37.4234 1.19922 39.0711 1.19922C40.8595 1.19922 42.4671 1.48922 43.8938 2.06922C45.3406 2.64922 46.5564 3.49922 47.541 4.61922L45.0694 7.01922C44.2455 6.19922 43.3513 5.59922 42.3867 5.21922C41.4423 4.81922 40.3974 4.61922 39.252 4.61922C38.1468 4.61922 37.122 4.79922 36.1775 5.15922C35.2331 5.51922 34.4192 6.02922 33.736 6.68922C33.0528 7.34922 32.5203 8.12922 32.1385 9.02922C31.7768 9.92922 31.596 10.9192 31.596 11.9992C31.596 13.0592 31.7768 14.0392 32.1385 14.9392C32.5203 15.8392 33.0528 16.6292 33.736 17.3092C34.4192 17.9692 35.223 18.4792 36.1474 18.8392C37.0717 19.1992 38.0965 19.3792 39.2218 19.3792C40.2668 19.3792 41.2715 19.2192 42.236 18.8992C43.2207 18.5592 44.1551 17.9992 45.0392 17.2192L47.2697 20.1292C46.1645 21.0092 44.8785 21.6792 43.4116 22.1392C41.9647 22.5792 40.4978 22.7992 39.0108 22.7992ZM43.5623 19.6192V11.7592H47.2697V20.1292L43.5623 19.6192Z" fill="#1A5319"/>
<path d="M56.0819 22.4992L65.5766 1.49922H69.4347L78.9595 22.4992H74.8603L66.6918 3.56922H68.2592L60.1209 22.4992H56.0819ZM60.4525 17.6392L61.5074 14.5792H72.901L73.956 17.6392H60.4525Z" fill="#1A5319"/>
<path d="M81.04 22.4992V1.49922H84.9585V22.4992H81.04Z" fill="#1A5319"/>
<path d="M50.4374 17.9992H53.6525V21.1992H50.4374V17.9992Z" fill="#1A5319"/>
<path d="M50.4374 8.79922H53.6525V11.9992H50.4374V8.79922Z" fill="#1A5319"/>
</svg>
